Coordinates
version=1
nRows=4
nColumns=63
inDegrees=yes

Units are S.I. units (second, meters, Newtons, ...)
If the header above contains a line with 'inDegrees', this indicates whether rotational values are in degrees (yes) or radians (no).

endheader
time	pelvis_tilt	pelvis_list	pelvis_rotation	pelvis_tx	pelvis_ty	pelvis_tz	hip_flexion_r	hip_adduction_r	hip_rotation_r	knee_angle_r	knee_angle_r_beta	ankle_angle_r	subtalar_angle_r	mtp_angle_r	hip_flexion_l	hip_adduction_l	hip_rotation_l	knee_angle_l	knee_angle_l_beta	ankle_angle_l	subtalar_angle_l	mtp_angle_l	L5_S1_Flex_Ext	L5_S1_Lat_Bending	L5_S1_axial_rotation	L4_L5_Flex_Ext	L4_L5_Lat_Bending	L4_L5_axial_rotation	L3_L4_Flex_Ext	L3_L4_Lat_Bending	L3_L4_axial_rotation	L2_L3_Flex_Ext	L2_L3_Lat_Bending	L2_L3_axial_rotation	L1_L2_Flex_Ext	L1_L2_Lat_Bending	L1_L2_axial_rotation	L1_T12_Flex_Ext	L1_T12_Lat_Bending	L1_T12_axial_rotation	Abs_r3	Abs_r2	Abs_r1	Abs_t1	Abs_t2	neck_flexion	neck_bending	neck_rotation	arm_flex_r	arm_add_r	arm_rot_r	elbow_flex_r	pro_sup_r	wrist_flex_r	wrist_dev_r	arm_flex_l	arm_add_l	arm_rot_l	elbow_flex_l	pro_sup_l	wrist_flex_l	wrist_dev_l
      0.00000000	     -5.22400938	     -5.69422348	     94.83620188	      0.09269997	      0.51046844	      0.81655051	      5.26403141	     -1.10799571	     -7.43990643	      7.85926625	      0.13717007	     34.30699959	     17.35282942	      0.00000000	      6.94358628	      0.60345556	     -5.04028506	     11.24156362	      0.19620230	     33.22181809	      8.57656338	      0.00000000	     -0.10362702	     -0.20356944	     -0.27157380	     -0.19244574	     -0.27074735	     -0.28854716	     -0.17024883	     -0.49495873	     -0.28854716	     -0.11843532	     -0.49495873	     -0.23762707	     -0.09622805	     -0.41511879	     -0.22065371	     -0.05921248	     -0.31532906	     -0.20368035	     -0.74019744	     -2.30281818	     -1.51041200	      0.00000000	      0.00000000	     23.33722703	     -2.74064520	      7.71602697	     19.94254876	     -3.73271249	     62.03738286	     53.68228324	     89.12884640	     10.47197324	     18.69564893	     16.63609031	     -0.76118788	     64.68612625	     33.62983809	     54.35134900	     -5.74869478	     -0.82614896
      0.02173913	     -5.54119593	     -5.88837836	     95.92306902	      0.09414756	      0.50926582	      0.81451749	      4.93477142	     -1.31843572	     -8.43371989	      7.78943353	      0.13595126	     34.14194694	     17.08416407	      0.00000000	      7.09363487	      0.83348167	     -3.77451435	     11.41473847	      0.19922477	     33.05662242	      8.42072857	      0.00000000	     -0.03837091	     -0.31276941	     -0.36038773	     -0.07125861	     -0.41598331	     -0.38291196	     -0.06303956	     -0.76046753	     -0.38291196	     -0.04385411	     -0.76046753	     -0.31533926	     -0.03563122	     -0.63779937	     -0.29281503	     -0.02192514	     -0.48447981	     -0.27029080	     -0.27407955	     -3.53811008	     -2.00436842	      0.00000000	      0.00000000	     23.08858079	     -0.76679371	      8.59095324	     14.28966291	     -2.49667875	     53.66903397	     57.59465837	      1.16865697	    -27.09171412	     18.40480943	     16.49538774	     -0.50918830	     61.19817936	     34.18027582	     55.97788728	     -6.65986692	     -1.24313785
      0.04347826	     -5.43608391	     -5.87487745	     96.88386839	      0.09411691	      0.50855132	      0.81389794	      4.58329776	     -1.15484828	     -9.22936472	      7.67072621	      0.13387943	     33.95347244	     16.79758674	      0.00000000	      7.26600812	      0.66058091	     -3.11322803	     11.84151392	      0.20667341	     33.19050279	      8.85504185	      0.00000000	     -0.00944866	     -0.33603012	     -0.54713261	     -0.01754711	     -0.44692007	     -0.58132840	     -0.01552320	     -0.81702364	     -0.58132840	     -0.01079887	     -0.81702364	     -0.47874104	     -0.00877403	     -0.68523263	     -0.44454525	     -0.00539896	     -0.52051066	     -0.41034946	     -0.06749084	     -3.80123997	     -3.04298745	      0.00000000	      0.00000000	     22.63298100	      0.76328023	     10.37592685	     13.91405184	     -2.51971476	     52.20105028	     57.37650561	      1.10332486	    -26.87875755	     17.52081749	     16.49627279	     -0.47319208	     60.11895373	     34.61247802	     55.90388104	     -7.27196303	     -2.16297219
      0.06521739	     -5.11468255	     -5.80026171	     97.81447442	      0.09343055	      0.50822157	      0.81381095	      4.29815150	     -0.80386147	     -9.99764472	      7.54523342	      0.13168917	     33.84343322	     16.58032856	      0.00000000	      7.47026661	      0.31398084	     -2.44316437	     12.32112004	      0.21504411	     33.40310866	      9.23601983	      0.00000000	     -0.00463910	     -0.31647261	     -0.69832636	     -0.00861526	     -0.42090857	     -0.74197176	     -0.00762157	     -0.76947150	     -0.74197176	     -0.00530202	     -0.76947150	     -0.61103557	     -0.00430786	     -0.64535094	     -0.56739017	     -0.00265078	     -0.49021607	     -0.52374477	     -0.03313660	     -3.58000142	     -3.88388172	      0.00000000	      0.00000000	     22.24706931	      1.82081861	     12.04367275	     13.68347949	     -2.75414547	     51.57265897	     57.31276556	      1.08700117	    -26.46415572	     17.12977512	     16.42281940	     -0.52746110	     60.03543546	     35.04574136	     56.77323335	     -7.45901336	     -2.78877127
